<?xml version="1.0" encoding="UTF-8" standalone="no"?>
<!-- Created with Inkscape (http://www.inkscape.org/) -->
<svg
   xmlns="http://www.w3.org/2000/svg"
   version="1.0"
   width="86"
   height="86"
   id="svg3306">
  <defs
     id="defs3308" />
  <g
     transform="translate(-143.5625,-255.17)"
     id="layer1">
    <path
       d="M 210.08302,279.045 C 210.08302,292.025 199.56177,302.54625 186.58302,302.54625 C 173.60302,302.54625 163.08177,292.025 163.08177,279.045 C 163.08177,266.06625 173.60302,255.545 186.58302,255.545 C 199.56177,255.545 210.08302,266.06625 210.08302,279.045"
       id="path2684"
       style="fill:#231f20;fill-rule:nonzero" />
    <path
       d="M 151.84375,309.3125 C 147.13376,309.36499 144.98,311.13875 144.9375,313.875 C 144.8525,319.34624 155.11125,317.0775 154.75,319.75 C 154.49749,321.62749 149.40875,321.39875 149.21875,319.46875 L 144.3125,319.6875 C 144.35501,320.19626 144.36125,324.1775 151.59375,324.15625 C 159.4,324.13375 159.5925,320.56375 159.65625,319.25 C 159.90875,314.03375 149.89625,315.855 149.875,313.5 C 149.85876,311.9275 154.28875,312.0325 154.4375,313.625 L 159.34375,313.34375 C 158.8925,310.28001 156.37875,309.2625 151.84375,309.3125 z M 165.46875,309.96875 L 160.8125,310.25 C 160.8125,310.25 160.78125,316.52125 160.8125,318.90625 C 160.90125,323.00375 165.07749,323.65999 165.8125,323.65625 L 167.34375,323.65625 L 167.34375,320.4375 C 167.34375,320.4375 165.43499,320.5825 165.46875,318.90625 L 165.46875,316.28125 L 167.28125,316.25 L 167.28125,313.5 L 165.46875,313.46875 L 165.46875,309.96875 z M 203.1875,309.96875 L 198.46875,310.25 L 198.46875,323.6875 L 203.1875,323.6875 L 203.1875,318.09375 C 203.18749,318.09376 203.28375,315.87625 205.8125,315.875 C 207.63781,315.87313 207.94814,317.12504 208,317.75 C 208.01729,317.95832 208.03125,318.09375 208.03125,318.09375 L 208.03125,323.6875 L 212.875,323.6875 L 212.875,316.78125 C 212.87499,316.78126 213.20375,312.85375 207.59375,312.6875 C 204.75999,312.64124 203.1875,314.34375 203.1875,314.34375 L 203.1875,309.96875 z M 180.46875,310 L 175.40625,310.3125 L 175.40625,318.90625 C 175.46999,320.43625 173.54625,320.52375 173.09375,320.53125 L 172.5,320.53125 L 172.5,323.6875 L 174.71875,323.6875 C 175.76876,323.71001 180.46875,322.8925 180.46875,318.90625 C 180.46876,315.07 180.46875,310 180.46875,310 z M 189.5,312.59375 C 184.195,312.59625 181.56249,315.02249 181.5625,318.09375 C 181.5625,321.16625 183.89625,323.65374 189.5,323.65625 C 194.62125,323.66 197.4375,321.16624 197.4375,318.09375 C 197.4375,315.0225 194.985,312.59125 189.5,312.59375 z M 223.34375,312.6875 C 220.56375,312.685 219.03125,314.34375 219.03125,314.34375 L 219.03125,313.125 L 214.1875,313.5 L 214.1875,323.6875 L 219.03125,323.6875 L 219.03125,318.09375 C 219.03125,318.09375 219.18001,315.89374 221.53125,315.9375 C 223.81,315.98 223.84375,318.15626 223.84375,318.15625 L 223.84375,323.6875 L 228.625,323.6875 L 228.625,316.78125 C 228.62625,316.78875 228.61125,312.69499 223.34375,312.6875 z M 189.5,315.375 C 191.45875,315.38 192.5,316.57625 192.5,318.09375 C 192.5,319.61125 191.45875,320.84125 189.5,320.84375 C 187.55125,320.84625 186.53125,319.61125 186.53125,318.09375 C 186.53125,316.57625 187.445,315.37 189.5,315.375 z"
       id="path2688"
       style="fill:#231f20;fill-rule:nonzero" />
    <path
       d="M 203.36427,272.08625 L 196.60302,279.0475 L 203.35552,286.00625 L 169.80177,272.08375 L 176.42552,279.0475 L 169.80427,286.00625 L 203.36427,272.08625 z M 179.63302,262.23875 L 186.58427,269.01 L 193.53302,262.24625 L 179.63177,295.8525 L 186.58427,289.2175 L 193.53302,295.84875 L 179.63302,262.23875"
       id="path2740"
       style="fill:#ffffff;fill-rule:nonzero" />
    <path
       d="M 182.21052,275.3 C 182.08802,275.25125 181.99427,275.23 181.91052,275.2225 C 181.90677,275.44125 181.83177,275.72875 181.47052,275.6925 C 181.19677,275.66625 180.88552,275.30125 180.88552,275.30125 C 180.88552,275.30125 180.79427,275.27625 180.65427,275.31125 L 180.43802,275.4725 L 180.64427,275.52125 L 180.82177,275.60625 L 180.85677,275.7 L 180.66802,275.80875 L 180.57052,275.98875 C 180.58302,276 180.65677,275.93875 180.78052,275.915 L 180.96677,275.875 L 181.06552,275.95375 L 180.92427,276.1525 L 180.90427,276.33375 L 181.07177,276.2425 L 181.26552,276.17375 L 181.33552,276.38875 C 181.38302,276.39375 181.52927,276.21125 181.64927,276.19375 C 181.83802,276.1675 182.03302,276.28 182.25052,276.25375 C 182.35802,276.24 182.48552,276.18875 182.61177,276.115 C 182.36302,275.8225 182.25552,275.4975 182.21052,275.3"
       id="path2744"
       style="fill:#ffffff;fill-rule:nonzero" />
    <path
       d="M 178.92302,271.18625 C 178.94677,270.93375 179.29552,270.75375 179.29552,270.75375 C 179.29552,270.75375 179.35302,270.6075 179.33427,270.465 C 179.31677,270.3375 179.22427,270.21 179.20552,270.21125 L 179.16052,270.42625 L 179.06802,270.625 L 178.95427,270.60125 C 178.95427,270.60125 179.01052,270.4475 178.97177,270.32625 C 178.93427,270.205 178.80052,270.11875 178.78677,270.12625 C 178.77302,270.13375 178.80677,270.255 178.78802,270.36875 C 178.76677,270.4975 178.69552,270.61875 178.69552,270.61875 L 178.61427,270.6075 C 178.61427,270.6075 178.59802,270.45 178.52927,270.335 C 178.45927,270.22 178.33427,270.15 178.32177,270.16125 C 178.30802,270.1725 178.35677,270.355 178.34552,270.525 C 178.33552,270.695 178.26552,270.85125 178.26552,270.85125 L 178.09552,270.83875 L 177.92552,270.71875 C 177.92552,270.71875 177.89677,270.98125 178.09427,271.15 L 178.20302,271.32875 L 178.05177,271.435 C 178.05177,271.435 177.98802,272.0525 178.46802,272.61125 C 178.62427,272.7925 178.78677,272.93125 178.94052,273.0375 C 178.94802,272.5575 179.07802,272.15125 179.20552,271.86625 C 178.92427,271.60375 178.90552,271.3725 178.92302,271.18625"
       id="path2748"
       style="fill:#ffffff;fill-rule:nonzero" />
    <path
       d="M 184.56802,276.0425 C 184.36052,275.9075 184.20677,276.0275 183.89802,275.735 C 183.72177,275.5675 183.80177,275.345 183.71802,275.1025 L 183.61052,274.82375 C 183.75302,274.83 183.98177,274.8 184.10427,274.57125 C 184.26427,274.27 183.88927,273.9625 183.56927,273.81 C 183.34052,273.7 182.90927,273.58875 182.74302,273.25625 C 182.60677,272.9825 182.79302,272.68 183.09552,272.7675 L 183.20552,272.855 C 182.76927,273.30375 183.70927,273.7425 183.85677,273.5475 C 183.78552,273.50375 183.59427,273.35625 183.57052,273.0725 C 183.54927,272.83125 183.43552,272.6325 183.19052,272.54375 C 183.06927,272.5 182.93552,272.5025 182.81177,272.54125 L 182.53177,272.72875 C 182.43802,272.84375 182.38427,273 182.40552,273.19 C 182.46802,273.76375 183.23177,273.90875 183.45677,274.0225 C 183.71177,274.15125 183.80802,274.30875 183.75802,274.41625 C 183.72177,274.49625 183.63052,274.565 183.38302,274.49875 C 183.29677,274.41375 183.18927,274.335 183.04677,274.27 C 182.56802,274.0475 182.27802,274.12125 182.06677,274.00875 C 181.95052,273.9475 181.83427,273.8175 181.76427,273.6275 L 181.71677,273.63125 C 181.68427,273.63375 181.39552,273.64875 181.14677,273.46625 L 181.11552,273.43875 L 180.87302,273.63125 C 180.47052,273.8375 180.01302,273.67 179.96302,273.65 L 179.68552,273.54 L 179.79677,273.26375 C 179.79677,273.2625 179.84552,273.14 179.86302,272.9275 L 179.86552,272.86375 L 179.85302,272.7325 L 179.72177,272.7175 C 179.54927,272.7125 179.38677,272.75875 179.38552,272.76 L 179.25427,272.7975 C 179.21177,273.17625 179.24552,273.62 179.45177,274.09125 C 179.28927,274.235 179.04802,274.37 178.74052,274.33 C 178.45052,274.2925 178.23802,274.01375 178.23802,274.01375 C 178.23802,274.01375 178.10302,273.975 177.98552,273.9925 C 177.86927,274.01 177.78552,274.08875 177.78552,274.1025 C 177.78552,274.11625 177.87427,274.12 177.99177,274.16625 L 178.18177,274.25125 L 178.21052,274.38625 L 178.00302,274.5025 L 177.89302,274.69 C 177.90552,274.70375 177.98677,274.64125 178.11802,274.61875 L 178.31927,274.59625 L 178.41177,274.71 L 178.25052,274.92 L 178.22427,275.1125 L 178.40552,275.02125 L 178.61427,274.95375 L 178.68177,275.185 C 178.73177,275.19125 178.89302,275.0025 179.02052,274.98875 C 179.22302,274.965 179.42552,275.0925 179.65802,275.07125 C 179.82052,275.055 180.02427,274.96125 180.21177,274.8325 C 180.51177,274.95375 180.84677,274.99375 181.15302,274.9975 C 181.65552,275.005 181.78552,274.7725 182.47177,275.09 C 182.47177,275.09 182.52802,275.69875 183.00802,276.09375 C 183.46802,276.4725 184.10177,276.44 184.10177,276.44 C 184.10177,276.44 184.31677,276.70125 184.13427,276.82375 C 183.93552,276.9575 183.67802,276.71625 183.67802,276.71625 L 183.44177,276.8425 L 183.32302,277.06625 L 183.51427,277.0075 L 183.70927,277.00875 L 183.78677,277.10125 L 183.87302,277.16125 L 183.80052,277.3225 L 183.81552,277.50125 L 183.95927,277.39 L 184.12427,277.2925 L 184.27927,277.3525 C 184.27927,277.3525 184.24802,277.46 184.27177,277.5825 C 184.29427,277.705 184.34427,277.76625 184.36427,277.76875 L 184.45927,277.625 L 184.58052,277.52875 L 184.66302,277.63625 L 184.76927,277.70875 L 184.80052,277.45 C 184.80052,277.45 184.96427,277.35125 184.98052,277.22375 C 184.99802,277.0975 184.89927,276.25875 184.56802,276.0425"
       id="path2752"
       style="fill:#ffffff;fill-rule:nonzero" />
    <path
       d="M 181.63052,270.61875 C 181.70427,270.50625 181.58177,270.345 181.46552,270.26 L 180.79677,269.8225 L 180.72927,269.995 C 180.71927,270.11875 180.77177,270.1975 180.77177,270.1975 C 180.60802,270.1925 180.33427,270.27125 180.23427,270.38125 L 180.40302,270.49875 C 180.26427,270.58625 179.96302,270.7875 179.77802,271.00375 C 179.53177,271.2925 179.41552,271.59 179.41552,271.59 L 179.68052,271.60625 C 179.36677,272.06625 179.30177,272.4775 179.30177,272.4775 C 179.30177,272.4775 179.50427,272.41625 179.72927,272.4225 C 179.90552,272.4275 180.09052,272.48625 180.09052,272.48625 C 180.09052,272.48625 180.17927,272.68125 180.15677,272.95125 C 180.13427,273.2225 180.06927,273.37625 180.06927,273.37625 C 180.06927,273.37625 180.85802,273.68125 181.04927,272.93875 L 181.04927,272.93625 L 181.32052,273.22875 C 181.48927,273.3525 181.69552,273.3375 181.69552,273.3375 C 181.69552,273.3375 181.65802,273.1275 181.80802,272.79 C 181.89177,272.60125 182.00677,272.48625 182.10302,272.405 L 182.24927,272.4825 L 182.42302,272.455 C 182.42302,272.455 182.31677,272.2725 182.33177,272.13 C 182.34677,271.9875 182.47177,271.85375 182.49927,271.54625 C 182.51802,271.3375 182.42302,271.23375 182.42302,271.23375 L 182.56552,271.1925 L 182.69552,271.07125 L 182.02927,270.6325 C 181.97177,270.59625 181.73177,270.4725 181.63052,270.61875 z M 180.69427,270.6225 C 180.69427,270.6225 180.86802,270.6425 181.01552,270.6975 C 181.16302,270.7525 181.32802,270.8325 181.32802,270.85 C 181.32677,270.8675 181.09302,271.04 180.84927,270.94 C 180.60552,270.84125 180.69427,270.6225 180.69427,270.6225 z M 180.89177,271.66375 L 180.99052,271.57 L 180.98927,271.55625 L 180.89427,271.3875 L 180.94302,271.2525 L 180.94552,271.25125 L 181.15552,271.375 L 181.20302,271.405 L 181.41302,271.52875 L 181.41177,271.5325 L 181.31677,271.63875 L 181.12302,271.63625 L 181.11052,271.64125 L 181.07552,271.7725 L 181.23677,271.92 L 181.00052,272.30375 L 180.90552,272.0975 L 180.81302,272.00875 L 180.81052,272.0075 L 180.80927,272.00625 L 180.68677,271.9675 L 180.46052,271.98125 L 180.68552,271.59125 L 180.89177,271.66375 z M 181.36552,272.30125 C 181.23177,272.52 181.27302,272.70375 181.24427,272.72375 L 181.00427,272.69 L 180.80052,272.61875 L 180.60177,272.70375 L 180.39052,272.7175 L 180.39052,272.715 L 180.38802,272.7175 L 180.29927,272.52375 L 180.27927,272.30875 L 180.12052,272.1625 L 179.97552,271.96875 C 179.97927,271.93375 180.16177,271.8825 180.29052,271.66125 C 180.36552,271.5325 180.45927,271.1575 180.48177,271.1575 C 180.50427,271.15625 180.55677,271.34 180.45802,271.62875 C 180.35927,271.91875 180.21052,271.9925 180.21052,271.9925 L 180.29552,272.1025 L 180.43802,272.22125 C 180.43802,272.22125 180.42302,272.2875 180.44052,272.41875 C 180.45802,272.54875 180.48552,272.55375 180.48552,272.55375 L 180.48552,272.555 L 180.48677,272.555 C 180.48677,272.555 180.50427,272.57625 180.62802,272.53 C 180.75177,272.48375 180.80302,272.4375 180.80302,272.4375 L 180.97427,272.50625 L 181.11177,272.53 C 181.11177,272.53 181.10677,272.36375 181.31427,272.13875 C 181.52052,271.91375 181.70677,271.8725 181.71677,271.89375 C 181.72802,271.91375 181.44302,272.17375 181.36552,272.30125 z M 181.73052,271.465 C 181.52677,271.2975 181.56802,271.00625 181.57927,271.0025 C 181.59052,270.99875 181.74677,271.1 181.86427,271.20375 C 181.98177,271.3075 182.08302,271.45 182.08302,271.45 C 182.08302,271.45 181.93302,271.6325 181.73052,271.465"
       id="path2756"
       style="fill:#ffffff;fill-rule:nonzero" />
    <path
       d="M 190.37802,283.44125 C 190.42177,283.565 190.44177,283.66 190.44552,283.7425 C 190.22677,283.74125 189.93802,283.80625 189.96177,284.17 C 189.98052,284.44375 190.33552,284.76625 190.33552,284.76625 C 190.33552,284.76625 190.35677,284.8575 190.31677,284.99625 L 190.14927,285.20875 C 190.13677,285.2075 190.14552,285.11375 190.10802,285 L 190.02802,284.82 L 189.93552,284.7825 L 189.82177,284.9675 L 189.63802,285.05875 C 189.62677,285.04625 189.69052,284.975 189.71802,284.85125 L 189.76427,284.66625 L 189.68802,284.56625 L 189.48427,284.70125 L 189.30302,284.715 L 189.39927,284.55 L 189.47427,284.35875 L 189.26177,284.28125 C 189.25802,284.23375 189.44427,284.09375 189.46552,283.97375 C 189.49927,283.78625 189.39177,283.5875 189.42552,283.37125 C 189.44302,283.26375 189.49802,283.13875 189.57427,283.015 C 189.85927,283.2725 190.18302,283.39 190.37802,283.44125"
       id="path2760"
       style="fill:#ffffff;fill-rule:nonzero" />
    <path
       d="M 194.38802,286.8575 C 194.64177,286.84125 194.83302,286.49875 194.83302,286.49875 C 194.83302,286.49875 194.98052,286.44625 195.12177,286.47 C 195.24927,286.49 195.37302,286.58625 195.37177,286.605 L 195.15552,286.64375 L 194.95427,286.73 L 194.97427,286.845 C 194.97427,286.845 195.13052,286.7925 195.24927,286.835 C 195.36927,286.8775 195.45177,287.01375 195.44302,287.0275 C 195.43552,287.04 195.31427,287.00375 195.20052,287.01875 C 195.07177,287.035 194.94802,287.1025 194.94802,287.1025 L 194.95677,287.185 L 195.22677,287.27875 L 195.39552,287.49125 C 195.38302,287.50375 195.20177,287.45 195.03177,287.455 C 194.86177,287.46 194.70177,287.525 194.70177,287.525 L 194.70927,287.69625 L 194.82427,287.87 C 194.82427,287.87 194.56177,287.89125 194.39927,287.6875 L 194.22302,287.5725 L 194.11177,287.72125 C 194.11177,287.72125 193.49302,287.765 192.94927,287.2675 C 192.77177,287.105 192.63927,286.93875 192.53802,286.78125 C 193.01802,286.79 193.42802,286.6725 193.71677,286.55375 C 193.97052,286.8425 194.20177,286.86875 194.38802,286.8575"
       id="path2764"
       style="fill:#ffffff;fill-rule:nonzero" />
    <path
       d="M 192.88302,286.00875 L 192.87052,285.87875 L 192.67677,285.8625 C 192.46427,285.87375 192.33927,285.91875 192.33802,285.91875 L 192.05552,286.0225 L 191.95677,285.74125 C 191.94927,285.72125 191.88802,285.54 191.88802,285.31625 C 191.88802,285.00875 192.00927,284.77 192.21302,284.6025 L 192.17802,284.5625 C 192.04802,284.3725 192.02802,284.16375 192.02802,284.05625 L 192.03052,283.9875 L 192.03427,283.93875 C 191.84802,283.86375 191.72177,283.74375 191.66427,283.62625 C 191.55802,283.41125 191.64052,283.12375 191.43427,282.6375 C 191.37302,282.49375 191.29802,282.3825 191.21677,282.29375 C 191.15677,282.045 191.22927,281.955 191.31052,281.92125 C 191.41927,281.875 191.57427,281.97625 191.69427,282.235 C 191.80177,282.46375 191.92177,283.23125 192.49302,283.3125 C 193.00302,283.385 193.28427,282.91125 193.16427,282.5475 C 193.08302,282.3 192.88802,282.17875 192.64802,282.15125 C 192.36552,282.11875 192.22427,281.9225 192.18177,281.85 C 191.98177,281.99125 192.39052,282.945 192.85427,282.5225 L 192.93802,282.63625 C 193.01552,282.94125 192.70677,283.1175 192.43802,282.9725 C 192.11177,282.79625 192.01302,282.36125 191.91052,282.12875 C 191.76802,281.805 191.47177,281.42 191.16552,281.57 C 190.93302,281.685 190.89552,281.9125 190.89802,282.05625 L 190.62177,281.94 C 190.38302,281.84875 190.15802,281.9225 189.99552,281.74 C 189.71177,281.4225 189.83802,281.2725 189.70927,281.06125 C 189.50427,280.7225 188.66802,280.5975 188.54052,280.61 C 188.41302,280.6225 188.30927,280.78375 188.30927,280.78375 L 188.04927,280.80625 L 188.11927,280.91625 L 188.22427,281.00125 L 188.12302,281.12 L 187.97677,281.21 C 187.97927,281.23 188.03927,281.2825 188.16052,281.30875 C 188.28052,281.335 188.38927,281.3075 188.38927,281.3075 L 188.44552,281.465 L 188.34302,281.6275 L 188.22802,281.76625 L 188.40552,281.7875 L 188.56802,281.72 L 188.62677,281.80875 L 188.71552,281.88875 L 188.71052,282.085 L 188.64677,282.2725 L 188.87427,282.16125 L 189.00677,281.93 C 189.00677,281.93 188.77552,281.66375 188.91427,281.47 C 189.04302,281.29125 189.29677,281.51375 189.29677,281.51375 C 189.29677,281.51375 189.24552,282.1475 189.60927,282.61875 C 189.98927,283.11125 190.59552,283.18625 190.59552,283.18625 C 190.89177,283.88375 190.65552,284.005 190.64677,284.5075 C 190.64177,284.81375 190.67052,285.15125 190.78302,285.45375 C 190.64802,285.63875 190.54802,285.83875 190.52677,286.00125 C 190.49802,286.2325 190.61927,286.43875 190.58927,286.64 C 190.57052,286.76875 190.37677,286.9225 190.38177,286.97375 L 190.61177,287.04875 L 190.53802,287.255 L 190.44052,287.43375 L 190.63302,287.4125 L 190.84802,287.25875 L 190.95927,287.355 L 190.92927,287.55375 C 190.90427,287.68625 190.83927,287.765 190.85177,287.7775 L 191.04302,287.67375 L 191.16677,287.46875 L 191.30052,287.5025 L 191.37802,287.695 C 191.42177,287.815 191.42177,287.90375 191.43552,287.90375 C 191.45052,287.90375 191.53177,287.82375 191.55302,287.70625 C 191.57427,287.59 191.53927,287.455 191.53927,287.455 C 191.53927,287.455 191.26677,287.2325 191.23927,286.9425 C 191.20802,286.6325 191.35052,286.39625 191.50052,286.2375 C 191.96552,286.45875 192.40677,286.50625 192.78802,286.475 L 192.82927,286.34625 C 192.83052,286.345 192.88177,286.18375 192.88302,286.00875"
       id="path2768"
       style="fill:#ffffff;fill-rule:nonzero" />
    <path
       d="M 195.03927,283.76875 L 194.62052,283.08875 L 194.49677,283.215 L 194.45052,283.35625 C 194.45052,283.35625 194.34927,283.25875 194.14052,283.27 C 193.83177,283.28875 193.69427,283.40875 193.55177,283.41875 C 193.40802,283.43 193.22927,283.3175 193.22927,283.3175 L 193.19677,283.49125 L 193.26927,283.64 C 193.18427,283.73375 193.06677,283.84375 192.87427,283.9225 C 192.53302,284.0625 192.32427,284.0175 192.32427,284.0175 C 192.32427,284.0175 192.30302,284.22375 192.42177,284.39625 C 192.49927,284.50875 192.60177,284.605 192.70552,284.67625 L 192.70302,284.67625 C 191.95427,284.845 192.23427,285.64375 192.23427,285.64375 C 192.23427,285.64375 192.39052,285.5825 192.66177,285.56875 C 192.93302,285.555 193.12552,285.64875 193.12552,285.64875 C 193.12552,285.64875 193.17802,285.83625 193.17677,286.0125 C 193.17552,286.2375 193.10927,286.43875 193.10927,286.43875 C 193.10927,286.43875 193.52302,286.38625 193.99302,286.08625 L 194.00052,286.3525 C 194.00052,286.3525 194.30177,286.245 194.59802,286.00875 C 194.81927,285.83 195.03052,285.535 195.12177,285.39875 L 195.23427,285.5725 C 195.34677,285.475 195.43552,285.20375 195.43552,285.04 C 195.43552,285.04 195.51177,285.09375 195.63677,285.08875 L 195.81177,285.02625 L 195.39427,284.34375 C 195.31177,284.225 195.15552,284.09875 195.04177,284.16875 C 195.18927,284.0725 195.07427,283.82625 195.03927,283.76875 z M 195.00802,285.105 C 195.00802,285.105 194.78677,285.18625 194.69552,284.94 C 194.60302,284.6925 194.78177,284.46375 194.80052,284.46375 C 194.81802,284.46375 194.89302,284.63125 194.94302,284.78125 C 194.99302,284.93 195.00802,285.105 195.00802,285.105 z M 194.03802,285.0825 L 193.64177,285.295 L 193.66302,285.06875 L 193.62677,284.945 L 193.62677,284.94375 L 193.62427,284.9425 L 193.53927,284.84625 L 193.33552,284.745 L 193.72677,284.52125 L 193.86927,284.6875 L 194.00302,284.65625 L 194.00677,284.64375 L 194.01052,284.45 L 194.12052,284.3575 L 194.12302,284.3575 L 194.24177,284.57125 L 194.26927,284.62 L 194.38677,284.83375 L 194.38552,284.83625 L 194.24927,284.88 L 194.08302,284.78 L 194.07052,284.7775 L 193.97302,284.87375 L 194.03802,285.0825 z M 193.35052,284.38 C 193.47927,284.3075 193.74927,284.03 193.76927,284.04125 C 193.78927,284.0525 193.74177,284.2375 193.51052,284.4375 C 193.27927,284.6375 193.11302,284.6275 193.11302,284.6275 L 193.13177,284.765 L 193.19552,284.93875 C 193.19552,284.93875 193.14802,284.98875 193.09802,285.11125 C 193.04802,285.2325 193.06927,285.25 193.06927,285.25 L 193.06927,285.2525 C 193.06927,285.2525 193.07427,285.28 193.20427,285.30125 C 193.33427,285.32375 193.40052,285.31 193.40052,285.31 L 193.51427,285.45625 L 193.62177,285.545 C 193.62177,285.545 193.70052,285.39875 193.99302,285.30875 C 194.28552,285.21875 194.46677,285.2775 194.46677,285.3 C 194.46552,285.3225 194.08802,285.405 193.95677,285.475 C 193.73052,285.5975 193.67302,285.7775 193.63927,285.78 L 193.44927,285.63 L 193.30927,285.46625 L 193.09302,285.43875 L 192.90302,285.345 L 192.90552,285.3425 L 192.90302,285.3425 L 192.92302,285.13125 L 193.01427,284.935 L 192.95052,284.72875 L 192.92427,284.4875 C 192.94427,284.46 193.12677,284.5075 193.35052,284.38 z M 194.22302,283.69 C 194.22302,283.69 194.36427,283.795 194.46302,283.91625 C 194.56302,284.0375 194.65927,284.19625 194.65552,284.2075 C 194.65177,284.21875 194.35802,284.25 194.19677,284.04125 C 194.03677,283.83375 194.22302,283.69 194.22302,283.69"
       id="path2772"
       style="fill:#ffffff;fill-rule:nonzero" />
    <path
       d="M 191.13302,275.32875 L 191.00677,275.525 C 191.19177,275.72625 191.36052,275.94625 191.36052,275.94625 C 191.36052,275.94625 191.80052,275.7275 192.27427,275.68625 C 192.40802,275.675 192.53302,275.68125 192.64427,275.695 L 192.71677,275.58625 L 192.95052,275.63625 L 192.97302,275.765 L 193.12177,275.82 C 193.12177,275.82 193.30427,275.78 193.49052,275.665 C 193.67802,275.54875 193.77802,275.40125 193.77802,275.40125 C 193.77802,275.40125 193.36802,275.2275 192.81802,275.28625 C 192.26802,275.34625 191.91552,275.3725 191.91552,275.3725 C 191.91552,275.3725 191.89177,275.1275 191.85052,274.875 C 191.71427,274.87625 191.58302,274.90125 191.41052,274.99375 C 191.31177,275.04625 191.23302,275.17125 191.13302,275.32875"
       id="path2776"
       style="fill:#ffffff;fill-rule:nonzero" />
    <path
       d="M 194.85052,271.13375 C 194.77427,271.09625 194.59052,271.17375 194.27802,271.37875 C 194.06552,271.51875 193.84427,271.7525 193.71802,271.90625 L 193.95552,272.17625 L 194.09052,272.44 C 194.25302,272.16875 194.56552,271.72875 194.72927,271.7325 C 194.84177,271.73375 194.91552,272.03 194.96177,272.31125 L 195.14177,272.3825 L 195.09177,272.61625 L 195.00427,272.6425 L 195.01802,272.8025 C 195.01802,272.8025 195.14802,272.9025 195.33052,272.995 C 195.51302,273.0875 195.63677,273.105 195.63677,273.105 C 195.63677,273.105 195.56927,272.64375 195.38177,272.155 C 195.19427,271.6675 194.88802,271.15125 194.85052,271.13375"
       id="path2780"
       style="fill:#ffffff;fill-rule:nonzero" />
    <path
       d="M 194.83052,273.78375 C 194.62427,273.65125 194.33052,273.45 194.04427,273.25 L 193.74052,273.08 L 193.50802,273.00375 L 193.49552,273.00375 L 193.49302,273.005 C 193.43427,273.08 193.36052,273.155 193.20677,273.2075 L 192.99927,273.24125 L 192.93427,273.425 C 192.80427,273.68625 192.58052,273.80375 192.42927,273.825 L 192.14802,273.86 L 192.09802,273.58125 L 192.04802,273.45 L 191.82927,273.5625 C 191.65302,273.61125 191.48302,273.5625 191.36677,273.49375 C 191.13052,273.83625 190.71177,273.71375 190.11052,274.2175 C 190.11052,274.2175 190.00677,274.30375 189.87677,274.4775 C 189.54052,274.58625 189.42927,274.50375 189.39052,274.41125 C 189.34427,274.3 189.44677,274.14375 189.71052,274.0225 C 189.94302,273.915 190.72177,273.795 190.80677,273.215 C 190.88177,272.6975 190.40177,272.41125 190.03177,272.5325 C 189.73927,272.6275 189.69677,272.82875 189.64552,273.105 C 189.60427,273.32625 189.49552,273.4375 189.32177,273.52625 C 189.43552,273.73625 190.42927,273.29875 190.00552,272.84625 L 190.12052,272.76125 C 190.43052,272.68375 190.60927,272.9975 190.46177,273.27 C 190.28052,273.60125 189.83927,273.69875 189.60302,273.8025 C 189.27427,273.94625 188.88177,274.24625 189.03427,274.55625 C 189.21177,274.9175 189.65552,274.8175 189.65552,274.8175 L 189.66302,274.8175 L 189.55302,275.05375 C 189.32677,275.615 189.12302,275.69875 188.92802,275.74375 C 188.73427,275.78875 188.63802,275.75625 188.56552,275.84375 C 188.53052,275.88625 188.43927,276.20375 188.39302,276.51875 C 188.34427,276.845 188.32927,276.935 188.33177,277.1925 L 188.48677,277.26875 L 188.43677,277.50125 L 188.36677,277.5275 C 188.39552,277.66 188.43177,277.7425 188.43177,277.7425 C 188.43177,277.7425 188.65052,277.76375 188.86052,277.6475 C 189.07052,277.5325 189.18052,277.4 189.18052,277.4 C 189.18052,277.4 188.92052,277.24875 188.85427,277.095 C 188.78802,276.94125 188.75927,276.3625 188.91677,276.2275 C 189.07302,276.0925 189.63302,276.31875 190.24427,275.88875 C 190.85427,275.45875 190.90177,274.925 191.26927,274.72875 C 191.91427,274.385 192.19927,274.7675 192.86052,274.48375 C 193.54052,274.1925 193.71927,273.7775 193.71927,273.7775 C 193.71927,273.7775 194.14427,273.87 194.60302,274.155 C 194.77427,274.2625 194.93427,274.38625 195.06677,274.5 L 195.10802,274.4625 L 195.34052,274.5125 L 195.31302,274.7275 L 195.43427,274.85125 C 195.43427,274.85125 195.57552,274.88125 195.76552,274.765 C 195.95427,274.64875 196.08677,274.52875 196.08677,274.52875 C 196.08677,274.52875 195.27177,274.0675 194.83052,273.78375"
       id="path2784"
       style="fill:#ffffff;fill-rule:nonzero" />
    <path
       d="M 192.15052,268.32375 L 192.07177,268.41 L 191.50302,270.4375 L 191.37677,270.49 L 191.22552,270.58125 C 191.12052,270.575 190.97927,270.575 190.82552,270.64625 C 190.63177,270.73625 190.54552,270.84375 190.55177,270.86 L 190.73302,270.88625 L 190.88927,270.9475 C 190.85052,271.0075 190.56677,271.4825 190.81552,271.9275 C 191.08302,272.405 191.45302,272.55125 191.49052,272.9675 C 191.50552,273.14125 191.48427,273.2175 191.48427,273.2175 C 191.48427,273.2175 191.60552,273.31875 191.74927,273.27875 C 191.89302,273.2375 192.07802,273.04125 192.07802,273.04125 C 192.07802,273.04125 192.19552,273.1175 192.28052,273.2575 C 192.36677,273.3975 192.38927,273.5325 192.38927,273.5325 C 192.38927,273.5325 192.56302,273.50875 192.67052,273.29375 C 192.77677,273.07875 192.70677,272.87875 192.70677,272.87875 C 192.70677,272.87875 192.91802,272.995 193.11052,272.92875 C 193.30427,272.8625 193.22677,272.77 193.42177,272.71875 C 193.61677,272.66875 193.88677,272.82375 193.88677,272.82375 C 193.88677,272.82375 193.82177,272.2375 193.32302,272 C 192.82427,271.76375 192.48302,271.74375 192.48302,271.74375 C 192.48302,271.74375 192.13802,271.945 191.89927,271.9625 C 191.55052,271.9875 191.38177,271.84 191.38177,271.84 L 191.44552,271.7 C 191.44552,271.7 191.64802,271.80625 191.92677,271.7275 C 192.20552,271.65 192.42177,271.45875 192.42177,271.45875 L 192.94177,271.46 C 192.94177,271.46 193.02302,271.625 193.19677,271.59875 C 193.37052,271.57375 193.43427,271.45 193.40802,271.385 C 193.38052,271.32 193.10802,271.29625 193.16427,271.105 C 193.23177,270.88 193.45927,270.99625 193.51302,270.9775 C 193.56802,270.9575 193.51927,270.7 193.40052,270.64375 C 193.08552,270.53875 192.41052,270.4575 192.41052,270.4575 L 192.21302,270.35875 L 192.03302,270.33875 L 192.19677,268.4225 L 192.15052,268.32375 z M 192.25927,270.56625 L 192.30052,270.78 C 192.30052,270.78 192.22677,270.865 192.03802,270.85875 C 191.84802,270.8525 191.78802,270.805 191.79927,270.77625 L 192.25927,270.56625"
       id="path2788"
       style="fill:#ffffff;fill-rule:nonzero" />
    <path
       d="M 182.92927,283.49625 L 183.12427,283.3675 C 183.32802,283.54875 183.54927,283.71625 183.54927,283.71625 C 183.54927,283.71625 183.33552,284.15875 183.30052,284.6325 C 183.29052,284.76625 183.29802,284.89125 183.31302,285.0025 L 183.20552,285.0775 L 183.25802,285.31 L 183.38802,285.33 L 183.44427,285.47875 C 183.44427,285.47875 183.40677,285.66125 183.29302,285.84875 C 183.18052,286.0375 183.03302,286.13875 183.03302,286.13875 C 183.03302,286.13875 182.85427,285.73125 182.90802,285.18125 C 182.96052,284.63 182.98177,284.27875 182.98177,284.27875 C 182.98177,284.27875 182.73802,284.25625 182.48427,284.21875 C 182.48427,284.0825 182.50677,283.95125 182.59677,283.7775 C 182.64802,283.6775 182.77302,283.5975 182.92927,283.49625"
       id="path2792"
       style="fill:#ffffff;fill-rule:nonzero" />
    <path
       d="M 178.77927,287.2625 C 178.74052,287.1875 178.81552,287.0025 179.01802,286.6875 C 179.15427,286.47375 179.38552,286.24875 179.53802,286.12125 L 179.81052,286.355 L 180.07677,286.4875 C 179.80677,286.65375 179.37052,286.97125 179.37552,287.135 C 179.37927,287.2475 179.67677,287.3175 179.95677,287.36 L 180.03052,287.53875 L 180.26302,287.48625 L 180.28927,287.3975 L 180.45052,287.41125 C 180.45052,287.41125 180.55052,287.54 180.64552,287.72125 C 180.74052,287.9025 180.75927,288.02625 180.75927,288.02625 C 180.75927,288.02625 180.29802,287.96375 179.80677,287.78125 C 179.31677,287.6 178.79802,287.3 178.77927,287.2625"
       id="path2796"
       style="fill:#ffffff;fill-rule:nonzero" />
    <path
       d="M 185.31052,280.76625 C 185.31052,280.76625 185.22802,280.73 185.09427,280.7025 L 185.07052,280.77375 L 184.83677,280.82625 L 184.76052,280.67125 C 184.50177,280.6725 184.41177,280.69 184.08677,280.74125 C 183.77177,280.79125 183.45552,280.8875 183.41427,280.9225 C 183.32677,280.995 183.36052,281.09125 183.31802,281.28625 C 183.27552,281.48125 183.19427,281.68625 182.63552,281.92 L 182.40052,282.03125 L 182.40052,282.025 C 182.40052,282.025 182.49552,281.57875 182.13177,281.40625 C 181.81927,281.2575 181.52552,281.65375 181.38552,281.985 C 181.28427,282.22125 181.19177,282.665 180.86302,282.84875 C 180.59177,283 180.27552,282.825 180.34927,282.515 L 180.43302,282.39875 C 180.89177,282.81625 181.31677,281.8175 181.10552,281.70625 C 181.01927,281.88125 180.90927,281.99125 180.68802,282.035 C 180.41177,282.08875 180.21177,282.13375 180.11927,282.4275 C 180.00427,282.8 180.29552,283.27625 180.81177,283.195 C 181.39052,283.10375 181.50052,282.3225 181.60552,282.08875 C 181.72427,281.825 181.87927,281.71875 181.99052,281.765 C 182.08427,281.8025 182.16802,281.9125 182.06302,282.25 C 181.89052,282.3825 181.80677,282.48625 181.80677,282.48625 C 181.30927,283.09375 181.43677,283.51125 181.09677,283.75125 C 181.13802,283.82 181.18927,283.93125 181.18927,284.07 L 181.17052,284.21375 L 181.06177,284.4325 L 181.19302,284.48125 L 181.47552,284.52875 L 181.44052,284.80875 C 181.42177,284.96125 181.30677,285.18625 181.04677,285.32 L 180.86677,285.38375 L 180.83302,285.59375 C 180.78302,285.74875 180.70802,285.82375 180.63427,285.8825 L 180.63302,285.88625 L 180.63302,285.89625 L 180.71052,286.13 L 180.88802,286.435 C 181.08927,286.71625 181.29427,287.0075 181.42802,287.21125 C 181.71677,287.64875 182.18927,288.45875 182.18927,288.45875 C 182.18927,288.45875 182.30677,288.325 182.42052,288.13375 C 182.53427,287.94375 182.50302,287.8025 182.50302,287.8025 L 182.37802,287.6825 L 182.16302,287.7125 L 182.11052,287.48 L 182.14802,287.43875 C 182.03302,287.3075 181.90552,287.15 181.79677,286.97875 C 181.50677,286.52375 181.40927,286.10125 181.40927,286.10125 C 181.40927,286.10125 181.82177,285.9175 182.10427,285.23375 C 182.38052,284.5675 181.99427,284.28875 182.33052,283.63875 C 182.52302,283.26875 183.05677,283.215 183.47927,282.6 C 183.90177,281.985 183.66802,281.42625 183.80177,281.2675 C 183.93427,281.11 184.51302,281.1325 184.66802,281.19625 C 184.82302,281.26 184.97677,281.51875 184.97677,281.51875 C 184.97677,281.51875 185.10802,281.40625 185.22177,281.195 C 185.33427,280.98375 185.31052,280.76625 185.31052,280.76625"
       id="path2800"
       style="fill:#ffffff;fill-rule:nonzero" />
    <path
       d="M 178.71802,282.83875 L 178.71927,282.84125 L 178.71927,282.84 L 178.71802,282.83875"
       id="path2804"
       style="fill:#ffffff;fill-rule:nonzero" />
    <path
       d="M 175.93677,284.5975 L 176.03677,284.6425 L 177.95052,284.45625 L 177.97302,284.635 L 178.07427,284.83125 C 178.07427,284.83125 178.16302,285.505 178.27177,285.81875 C 178.33052,285.9375 178.58677,285.9825 178.60552,285.9275 C 178.62552,285.87375 178.50552,285.64625 178.73052,285.5775 C 178.92052,285.51875 178.94802,285.79125 179.01302,285.8175 C 179.07802,285.84375 179.20177,285.7775 179.22427,285.60375 C 179.24802,285.43 179.08302,285.35125 179.08302,285.35125 L 179.07552,284.83 C 179.07552,284.83 179.26302,284.6125 179.33802,284.3325 C 179.41302,284.05375 179.30427,283.8525 179.30427,283.8525 L 179.44302,283.78625 C 179.44302,283.78625 179.59302,283.9525 179.57177,284.3025 C 179.55677,284.54125 179.36052,284.8875 179.36052,284.8875 C 179.36052,284.8875 179.38427,285.23 179.62802,285.725 C 179.87052,286.22125 180.45677,286.27875 180.45677,286.27875 C 180.45677,286.27875 180.29927,286.01125 180.34677,285.815 C 180.39552,285.62 180.48927,285.69625 180.55302,285.5025 C 180.61802,285.3075 180.49802,285.09875 180.49802,285.09875 C 180.49802,285.09875 180.69927,285.16625 180.91302,285.0575 C 181.12677,284.9475 181.14802,284.7725 181.14802,284.7725 C 181.14802,284.7725 181.01302,284.7525 180.87177,284.66875 C 180.73177,284.58375 180.65427,284.46875 180.65427,284.46875 C 180.65427,284.46875 180.84802,284.28 180.88677,284.13625 C 180.92552,283.9925 180.82302,283.8725 180.82302,283.8725 C 180.82302,283.8725 180.74552,283.895 180.57302,283.88125 C 180.15552,283.84875 180.00552,283.48125 179.52552,283.22 C 179.07677,282.975 178.60552,283.265 178.54552,283.30375 L 178.48302,283.15 L 178.45427,282.9675 C 178.43677,282.9625 178.33177,283.04875 178.24427,283.24375 C 178.17427,283.39875 178.17552,283.54 178.18302,283.645 L 178.09427,283.7975 L 178.04302,283.92375 L 176.02177,284.51625 L 175.93677,284.5975 z M 178.38552,284.21625 C 178.41427,284.20375 178.46177,284.265 178.47052,284.45375 C 178.47927,284.6425 178.39552,284.7175 178.39552,284.7175 L 178.18052,284.67875 L 178.38552,284.21625"
       id="path2808"
       style="fill:#ffffff;fill-rule:nonzero" />
  </g>
</svg>
